# xmcd
#
# Track frame offsets:
#	150
#	35809
#	76967
#	99957
#	128020
#	159856
#	193714
#	228609
#	257110
#
# Disc length: 3643 seconds
# Revision: 0
# Processed by: cddbd v1.5.2PL0 Copyright (c) Steve Scherf et al.
# Submitted via: dBpowerAMP V12.0
#
DISCID=6c0e3909
DTITLE=Lazy Eye - Black Hill
DYEAR=2018
DGENRE=Blues
TTITLE0=Blue Tongue Blues (Live)
TTITLE1=House Of Trouble (Live)
TTITLE2=Black Hill (Live)
TTITLE3=Do it Right (Live)
TTITLE4=Slow Down Mumma (Live)
TTITLE5=Let Me Down Easy (Live)
TTITLE6=Voodoo Blues (Live)
TTITLE7=Down Home (Live)
TTITLE8=Black Hill 
EXTD=
EXTT0=
EXTT1=
EXTT2=
EXTT3=
EXTT4=
EXTT5=
EXTT6=
EXTT7=
EXTT8=
PLAYORDER=
